<?xml version="1.0" encoding="utf-8"?>
<!-- Generator: Adobe Illustrator 25.4.1, SVG Export Plug-In . SVG Version: 6.00 Build 0)  -->
<svg version="1.1" id="shapes" xmlns="http://www.w3.org/2000/svg" xmlns:xlink="http://www.w3.org/1999/xlink" x="0px" y="0px"
	 viewBox="0 0 432 648" enable-background="new 0 0 432 648" xml:space="preserve">
	<rect id="white" fill="#FFFFFF" width="432" height="648"/>
	<g id="pink_00000050650458525492800230000010612103765859924879_" opacity="0.76">
		<path fill="#CD94C2" d="M-5,406.1c18.2-2.2,38.3-2.9,60.7-4.4c34.3-2.2,55.7-2.7,76.3-0.2c20.5,2.1,40.2,7.3,71,6.3
			c20.6-1.3,43.1-6.2,65.6-18c22.4-11.4,44.8-29.8,65.2-48.1c20.4-18.3,38.7-36.5,53.2-50.3c14.4-14.5,24.9-24.6,29.6-42.5
			c7.1-25.4,0.2-78.3-16.1-129.9C384,66.5,358.3,27.9,328,17.4C293,2.1,240.9,7.6,182.9,0.8c-10.8-1.5-25.5-6.1-42.2-14.1
			C124-20.9,105.5-31.9,87-38.6c-18.4-6.7-36.7-9-52.7-0.9c-16,7.7-29.9,26-39.4,50.2c-12.8,36.1-20.8,67.7-25.2,107.5
			c-4.4,38.9-5.2,86.2-3.6,131.6c1.6,45.3,5.6,88.7,10.8,116.5C-17.8,394.8-11.4,407.6-5,406.1z"/>
	</g>
	<g id="orange">
		<path fill="#E68843" d="M0.2,384.4c1.6-5.3,4.5-13.8,6.5-18.9c0,0,16.7-43.2,100.3-31.3s70.7,82.8,70.7,82.8
			c-1,5.4-5.4,12.5-9.8,15.8l-6.7,56.5c-1.3,5.4-2.7,14.2-3.2,19.7l2,51c-4,3.8-10.3,10.2-14,14.3c0,0-53.1,58.7-115.8-11.4
			S0.2,384.4,0.2,384.4z"/>
	</g>
	<path id="blue" fill="#4190CD" d="M0,648c37.5,69.8,407.3,78.4,432,0c20.2-64,10.5-56.8,4-119c-0.6-6-4.2-32.2-19.5-38.8
		C325.7,450.4,127,322.5,0,465.8c-9.4,10.7-15.5,29.9-17.7,46.3C-17.7,512.1-30.1,592,0,648z"/>
	<g id="black">
		<path d="M510.4,460.2C297.6,725.9,2.2,748.3,197,418c16.3-27.6,16.2-71.3,42.1-98.5c32.1-33.7,88.5-52.5,111.4-104.4
			c21.4-48.6,112-34.2,158.8-12.1C636.8,263.3,510.4,460.2,510.4,460.2"/>
		<path d="M508.6,458.4c-10.4,12.9-21.1,25.6-32.3,37.8c-10.7,11.7-21.7,23.1-33.1,34.1c-10.9,10.5-22.1,20.7-33.6,30.5
			c-10.8,9.1-21.8,17.9-33.2,26.3c-10.7,7.9-21.7,15.4-32.9,22.5c-10.4,6.6-21.1,12.8-32.1,18.5c-9.9,5.2-20.2,10.1-30.4,14.3
			c-9.5,3.9-19.2,7.4-29.1,10.2c-8.8,2.5-17.7,4.6-26.8,5.9c-1.3,0.2-1.6,0.2-2.7,0.4c-1.1,0.1-2.1,0.3-3.2,0.4
			c-2,0.2-4,0.4-6.1,0.5c-3.9,0.3-7.9,0.3-11.8,0.2c-1.9-0.1-3.7-0.2-5.6-0.3c-0.9-0.1-1.8-0.2-2.7-0.3c-0.4,0-0.9-0.1-1.3-0.2
			c-0.2,0-0.4-0.1-0.6-0.1c-0.1,0-0.3,0-0.4-0.1c0.2,0,0.4,0,0.1,0c-3.4-0.5-6.8-1.1-10.1-2c-1.6-0.4-3.2-0.9-4.8-1.4
			c-0.8-0.3-1.5-0.5-2.3-0.8c-0.4-0.1-0.7-0.3-1.1-0.4c-0.2-0.1-0.4-0.2-0.6-0.2c-0.1,0-0.7-0.3-0.4-0.2c0.2,0.1-0.6-0.3-0.9-0.4
			c-0.4-0.2-0.7-0.3-1.1-0.5c-0.7-0.3-1.5-0.7-2.2-1.1c-1.4-0.7-2.7-1.5-4-2.3c-1.3-0.8-2.6-1.7-3.8-2.6c-0.3-0.2-0.6-0.5-0.9-0.7
			c0.5,0.4-0.4-0.3-0.6-0.5c-0.6-0.5-1.2-1-1.7-1.5c-2.3-2-4.5-4.3-6.4-6.7c-0.2-0.3-0.4-0.6-0.7-0.8c0.3,0.4,0,0.1-0.1-0.1
			c-0.1-0.2-0.2-0.3-0.4-0.5c-0.5-0.6-0.9-1.3-1.3-1.9c-0.9-1.3-1.7-2.7-2.5-4.1c-0.8-1.4-1.5-2.9-2.2-4.4c-0.2-0.4-0.3-0.7-0.5-1.1
			c-0.1-0.2-0.2-0.3-0.2-0.5c0,0,0.1,0.3-0.1-0.2c-0.3-0.8-0.6-1.6-0.9-2.4c-1.2-3.3-2.2-6.7-2.9-10.2c-0.4-1.8-0.7-3.7-1-5.6
			c0-0.2-0.2-1.4-0.1-1c-0.1-0.5-0.1-1-0.2-1.5c-0.1-1-0.2-1.9-0.3-2.9c-0.8-8.8-0.4-17.7,0.6-26.5c1.2-10.2,3.4-21,6.2-31.2
			c3.3-12.4,7.5-24.5,12.2-36.4c5.5-14.1,11.8-27.8,18.6-41.3c7.9-15.8,16.6-31.3,25.5-46.6c7.6-13.1,11.4-28.2,15.5-42.6
			c4.4-15.4,9-31,17.8-44.6c7.8-12,19.2-21.3,30.5-29.7c11.7-8.7,24-16.7,35.8-25.4c12.2-8.9,23.9-18.5,33.9-29.8
			c5.1-5.8,9.8-12.1,13.8-18.8c2-3.4,3.9-7,5.5-10.6c1.2-2.6,2.4-5.2,4-7.6c5.9-9,15.1-15.2,25.1-18.9c11.6-4.3,24.1-5.8,36.4-5.8
			c13.6-0.1,27.1,1.5,40.4,4.1c12.9,2.6,25.7,6.2,37.9,10.9c11.2,4.3,22.1,9.7,31.7,17c8.6,6.5,16,14.6,21.6,23.7
			c5.4,8.8,9,18.2,11.3,28.3c2.3,10.2,3.1,20.5,2.9,31.1c-0.2,10.9-1.5,21.6-3.5,32.3c-2.1,10.9-4.9,21.6-8.2,32.1
			c-3.2,10.2-6.9,20.2-11,30.1c-3.5,8.5-7.5,17.3-11.6,25.7c-3.4,6.9-6.9,13.8-10.7,20.6c-2.5,4.5-5,9-7.7,13.4
			c-0.9,1.5-1.9,3.1-2.8,4.6c-1.7,2.7,2.6,5.2,4.3,2.5c1.1-1.7,2.1-3.4,3.1-5.1c2.8-4.6,5.4-9.3,8-14c3.8-7,7.4-14,10.9-21.2
			c4.3-8.9,8.3-17.9,12.1-27.1c4.1-10,7.7-20.1,10.9-30.4c3.3-10.7,6.1-21.6,8-32.7c2-11,3.2-22.1,3.2-33.3c0-10.8-1-21.6-3.6-32.1
			c-2.5-10.2-6.6-20.1-12.3-29c-6.2-9.6-14.1-17.8-23.3-24.6c-10-7.4-21.2-12.7-32.8-17.1c-12.5-4.8-25.5-8.4-38.6-10.9
			c-13.6-2.6-27.5-4.2-41.4-4c-12.6,0.2-25.4,1.7-37.3,6.2c-10.8,4.1-20.5,10.6-27,20.2c-3.9,5.7-6.1,12.2-9.6,18.2
			c-3.8,6.6-8.4,12.8-13.4,18.6c-10,11.4-21.8,21-34.1,29.9c-11.9,8.7-24.3,16.7-36.1,25.6c-11.8,8.9-23.4,18.6-31.4,31.1
			c-8.8,13.8-13.5,29.6-17.9,45.2c-4.1,14.6-7.9,29.5-15.7,42.7c-9.1,15.4-17.7,31.1-25.7,47.2c-6.8,13.7-13.1,27.7-18.7,41.9
			c-4.7,12-8.9,24.3-12.1,36.8c-2.8,10.5-4.9,21.1-6,31.9c-1,8.8-1.2,17.8-0.3,26.7c0.7,7.5,2.2,15,4.9,22.1
			c2.4,6.4,5.8,12.4,10.1,17.7c4,4.9,8.9,9.1,14.3,12.4c5.7,3.5,11.9,6,18.4,7.7c7.1,1.9,14.5,2.8,21.8,3c8.3,0.3,16.6-0.4,24.8-1.6
			c9.2-1.3,18.2-3.4,27.1-5.9c9.9-2.9,19.7-6.3,29.2-10.2c10.7-4.4,21.2-9.3,31.5-14.7c11-5.8,21.8-12,32.3-18.7
			c11.4-7.2,22.6-14.8,33.4-22.9c11.6-8.6,22.9-17.6,33.9-26.9c11.6-9.9,23-20.2,33.9-30.8c11.5-11.1,22.6-22.7,33.4-34.5
			c10.9-12,21.4-24.3,31.5-37c0.8-1.1,1-2.5,0-3.5C511.3,457.6,509.4,457.4,508.6,458.4L508.6,458.4z"/>
	</g>
	<g id="pink-lil" opacity="0.25">
		<g>
			<path fill="#8B4199" d="M618.7,67.3c0,7-3.5,13.1-6.9,19c-3.6,6.4-7.2,12.8-7.9,20.2c-0.2,2,2.2,2.9,3.8,2.2
				c14.2-7.3,26.2-18.6,34.5-32.2c1.7-2.8-2.7-5.3-4.3-2.5c-7.8,13-19.2,23.5-32.7,30.4c1.3,0.7,2.5,1.4,3.8,2.2
				c0.7-6.9,4.6-13.1,8-19c3.6-6.3,6.9-12.9,6.9-20.3C623.7,64.1,618.7,64.1,618.7,67.3L618.7,67.3z"/>
		</g>
	</g>
	<path id="yellow-lil" fill="#FFED35" d="M162.5,399.8h44.4c103.3,12.2,103.4,14.3,142.9,23.4"/>
	<g id="yellow">
		<path fill="#FFED35" d="M150.3,60.7c4.2-3.6,11.4-9,16-12c0,0,20.8-13.8,140.8-9.4s104.6,25.9,104.6,25.9
			c-3.2,4.5-8.2,11.9-11.2,16.6L378,116.4c-3,4.6-9.8,9.6-15,11.1c0,0-76.3,21.6-166.2-4.2S150.3,60.7,150.3,60.7z"/>
	</g>
</svg>